<svg aria-roledescription="er" viewBox="0 0 952.759521484375 817" style="max-width: 952.76px; background-color: white;" xmlns:xlink="http://www.w3.org/1999/xlink" xmlns="http://www.w3.org/2000/svg" width="100%" id="mermaid-0"><style>#mermaid-0{font-family:"trebuchet ms",verdana,arial,sans-serif;font-size:16px;fill:#000000;}#mermaid-0 .error-icon{fill:#552222;}#mermaid-0 .error-text{fill:#552222;stroke:#552222;}#mermaid-0 .edge-thickness-normal{stroke-width:2px;}#mermaid-0 .edge-thickness-thick{stroke-width:3.5px;}#mermaid-0 .edge-pattern-solid{stroke-dasharray:0;}#mermaid-0 .edge-pattern-dashed{stroke-dasharray:3;}#mermaid-0 .edge-pattern-dotted{stroke-dasharray:2;}#mermaid-0 .marker{fill:#000000;stroke:#000000;}#mermaid-0 .marker.cross{stroke:#000000;}#mermaid-0 svg{font-family:"trebuchet ms",verdana,arial,sans-serif;font-size:16px;}#mermaid-0 .entityBox{fill:#cde498;stroke:#13540c;}#mermaid-0 .attributeBoxOdd{fill:#ffffff;stroke:#13540c;}#mermaid-0 .attributeBoxEven{fill:#f2f2f2;stroke:#13540c;}#mermaid-0 .relationshipLabelBox{fill:hsl(78.1578947368, 58.4615384615%, 84.5098039216%);opacity:0.7;background-color:hsl(78.1578947368, 58.4615384615%, 84.5098039216%);}#mermaid-0 .relationshipLabelBox rect{opacity:0.5;}#mermaid-0 .relationshipLine{stroke:#000000;}#mermaid-0 .entityTitleText{text-anchor:middle;font-size:18px;fill:#000000;}#mermaid-0 :root{--mermaid-font-family:"trebuchet ms",verdana,arial,sans-serif;}</style><g/><defs><marker orient="auto" markerHeight="18" markerWidth="18" refY="9" refX="0" id="ONLY_ONE_START"><path d="M9,0 L9,18 M15,0 L15,18" fill="none" stroke="gray"/></marker></defs><defs><marker orient="auto" markerHeight="18" markerWidth="18" refY="9" refX="18" id="ONLY_ONE_END"><path d="M3,0 L3,18 M9,0 L9,18" fill="none" stroke="gray"/></marker></defs><defs><marker orient="auto" markerHeight="18" markerWidth="30" refY="9" refX="0" id="ZERO_OR_ONE_START"><circle r="6" cy="9" cx="21" fill="white" stroke="gray"/><path d="M9,0 L9,18" fill="none" stroke="gray"/></marker></defs><defs><marker orient="auto" markerHeight="18" markerWidth="30" refY="9" refX="30" id="ZERO_OR_ONE_END"><circle r="6" cy="9" cx="9" fill="white" stroke="gray"/><path d="M21,0 L21,18" fill="none" stroke="gray"/></marker></defs><defs><marker orient="auto" markerHeight="36" markerWidth="45" refY="18" refX="18" id="ONE_OR_MORE_START"><path d="M0,18 Q 18,0 36,18 Q 18,36 0,18 M42,9 L42,27" fill="none" stroke="gray"/></marker></defs><defs><marker orient="auto" markerHeight="36" markerWidth="45" refY="18" refX="27" id="ONE_OR_MORE_END"><path d="M3,9 L3,27 M9,18 Q27,0 45,18 Q27,36 9,18" fill="none" stroke="gray"/></marker></defs><defs><marker orient="auto" markerHeight="36" markerWidth="57" refY="18" refX="18" id="ZERO_OR_MORE_START"><circle r="6" cy="18" cx="48" fill="white" stroke="gray"/><path d="M0,18 Q18,0 36,18 Q18,36 0,18" fill="none" stroke="gray"/></marker></defs><defs><marker orient="auto" markerHeight="36" markerWidth="57" refY="18" refX="39" id="ZERO_OR_MORE_END"><circle r="6" cy="18" cx="9" fill="white" stroke="gray"/><path d="M21,18 Q39,0 57,18 Q39,36 21,18" fill="none" stroke="gray"/></marker></defs><path style="stroke: gray; fill: none;" marker-start="url(#ZERO_OR_ONE_START)" marker-end="url(#ONLY_ONE_END)" d="M476.4704818725586,596L476.4704818725586,606.1666666666666C476.4704818725586,616.3333333333334,476.4704818725586,636.6666666666666,476.4704818725586,655.1666666666666C476.4704818725586,673.6666666666666,476.4704818725586,690.3333333333334,476.4704818725586,698.6666666666666L476.4704818725586,707" class="er relationshipLine"/><path style="stroke: gray; fill: none;" marker-start="url(#ZERO_OR_MORE_START)" marker-end="url(#ONLY_ONE_END)" d="M61.2784939172133,307L57.3476763071504,315.3333333333333C53.41685869708751,323.6666666666667,45.55522347696172,340.3333333333333,98.74129073424909,368.19260993022857C151.92735799153647,396.05188652712377,266.161127726237,435.1037730542476,323.2780125935872,454.6297163178095L380.3948974609375,474.1556595813714" class="er relationshipLine"/><path style="stroke: gray; fill: none;" marker-start="url(#ZERO_OR_MORE_START)" marker-end="url(#ONLY_ONE_END)" d="M114.10868259645858,307L118.03950020652148,315.3333333333333C121.97031781658437,323.6666666666667,129.83195303671016,340.3333333333333,134.34841801785322,357C138.8648829989963,373.6666666666667,140.03617774115668,390.3333333333333,140.62182511223685,398.6666666666667L141.20747248331705,407" class="er relationshipLine"/><path style="stroke: gray; fill: none;" marker-start="url(#ZERO_OR_MORE_START)" marker-end="url(#ONLY_ONE_END)" d="M451.4704818725586,68.07333086381351L390.8409996032715,80.89444238651126C330.2115173339844,93.715553909209,208.95255279541016,119.3577769546045,148.32307052612305,140.51222181063557C87.69358825683594,161.66666666666666,87.69358825683594,178.33333333333334,87.69358825683594,186.66666666666666L87.69358825683594,195" class="er relationshipLine"/><path style="stroke: gray; fill: none;" marker-start="url(#ZERO_OR_MORE_START)" marker-end="url(#ONLY_ONE_END)" d="M551.4704818725586,68.75597981288387L607.9175300598145,81.46331651073656C664.3645782470703,94.17065320858926,777.258674621582,119.58532660429462,833.7057228088379,149.959329968814C890.1527709960938,180.33333333333334,890.1527709960938,215.66666666666666,890.1527709960938,251C890.1527709960938,286.3333333333333,890.1527709960938,321.6666666666667,837.2183202107748,358.5272118883486C784.2838694254557,395.3877571100306,678.4149678548177,433.7755142200611,625.4805170694987,452.96939277507636L572.5460662841797,472.1632713300917" class="er relationshipLine"/><path style="stroke: gray; fill: none;" marker-start="url(#ZERO_OR_MORE_START)" marker-end="url(#ONLY_ONE_END)" d="M320.11038787409944,288.5L313.7723290725324,299.9166666666667C307.4342702709654,311.3333333333333,294.7581526678313,334.1666666666667,280.98416085913,353.9166666666667C267.21016905042865,373.6666666666667,252.33830303615994,390.3333333333333,244.90237002902563,398.6666666666667L237.4664370218913,407" class="er relationshipLine"/><path style="stroke: gray; fill: none;" marker-start="url(#ZERO_OR_MORE_START)" marker-end="url(#ONLY_ONE_END)" d="M358.61750843839826,288.5L364.00272856418445,299.9166666666667C369.38794868997064,311.3333333333333,380.1583889415429,334.1666666666667,391.3414321933803,355.75C402.52447544521755,377.3333333333333,414.1201216973199,397.6666666666667,419.91794482337104,407.8333333333333L425.71576794942223,418" class="er relationshipLine"/><path style="stroke: gray; fill: none;" marker-start="url(#ZERO_OR_MORE_START)" marker-end="url(#ONLY_ONE_END)" d="M665.1527709960938,287.718567086961L649.4292469024658,299.2654725724675C633.7057228088379,310.812378057974,602.258674621582,333.906189028987,580.1409173965454,355.6197611811602C558.0231601715087,377.3333333333333,545.2346939086914,397.6666666666667,538.8404607772827,407.8333333333333L532.446227645874,418" class="er relationshipLine"/><path style="stroke: gray; fill: none;" marker-start="url(#ZERO_OR_MORE_START)" marker-end="url(#ONLY_ONE_END)" d="M732.8414502413767,288.5L738.2266703671629,299.9166666666667C743.611890492949,311.3333333333333,754.3823307445214,334.1666666666667,766.6842175369742,359.4166666666667C778.9861043294271,384.6666666666667,792.8194376627604,412.3333333333333,799.7361043294271,426.1666666666667L806.6527709960938,440" class="er relationshipLine"/><g transform="translate(405.4684066772461,707 )" id="entity-Role-ed1af520-f0c8-4dba-a777-7dc2e7066eb0"><rect height="90" width="142.004150390625" y="0" x="0" class="er entityBox"/><text style="dominant-baseline: middle; text-anchor: middle; font-size: 12px;" transform="translate(71.0020751953125,12)" y="0" x="0" id="text-entity-Role-ed1af520-f0c8-4dba-a777-7dc2e7066eb0" class="er entityLabel">Role</text><rect height="22" width="71.0020751953125" y="24" x="0" class="er attributeBoxOdd"/><text style="dominant-baseline: middle; font-size: 10.2px;" transform="translate(5,35)" y="0" x="0" id="text-entity-Role-ed1af520-f0c8-4dba-a777-7dc2e7066eb0-attr-1-type" class="er entityLabel">EMPLOYEE</text><rect height="22" width="71.0020751953125" y="24" x="71.0020751953125" class="er attributeBoxOdd"/><text style="dominant-baseline: middle; font-size: 10.2px;" transform="translate(76.0020751953125,35)" y="0" x="0" id="text-entity-Role-ed1af520-f0c8-4dba-a777-7dc2e7066eb0-attr-1-name" class="er entityLabel">EMPLOYEE</text><rect height="22" width="71.0020751953125" y="46" x="0" class="er attributeBoxEven"/><text style="dominant-baseline: middle; font-size: 10.2px;" transform="translate(5,57)" y="0" x="0" id="text-entity-Role-ed1af520-f0c8-4dba-a777-7dc2e7066eb0-attr-2-type" class="er entityLabel">MANAGER</text><rect height="22" width="71.0020751953125" y="46" x="71.0020751953125" class="er attributeBoxEven"/><text style="dominant-baseline: middle; font-size: 10.2px;" transform="translate(76.0020751953125,57)" y="0" x="0" id="text-entity-Role-ed1af520-f0c8-4dba-a777-7dc2e7066eb0-attr-2-name" class="er entityLabel">MANAGER</text><rect height="22" width="71.0020751953125" y="68" x="0" class="er attributeBoxOdd"/><text style="dominant-baseline: middle; font-size: 10.2px;" transform="translate(5,79)" y="0" x="0" id="text-entity-Role-ed1af520-f0c8-4dba-a777-7dc2e7066eb0-attr-3-type" class="er entityLabel">TEAMLEADER</text><rect height="22" width="71.0020751953125" y="68" x="71.0020751953125" class="er attributeBoxOdd"/><text style="dominant-baseline: middle; font-size: 10.2px;" transform="translate(76.0020751953125,79)" y="0" x="0" id="text-entity-Role-ed1af520-f0c8-4dba-a777-7dc2e7066eb0-attr-3-name" class="er entityLabel">TEAMLEADER</text></g><g transform="translate(380.3948974609375,418 )" id="entity-User-c73f395a-1b06-46bb-b7da-6ad6484ed2ae"><rect height="178" width="192.1511688232422" y="0" x="0" class="er entityBox"/><text style="dominant-baseline: middle; text-anchor: middle; font-size: 12px;" transform="translate(96.0755844116211,12)" y="0" x="0" id="text-entity-User-c73f395a-1b06-46bb-b7da-6ad6484ed2ae" class="er entityLabel">User</text><rect height="22" width="54.095550537109375" y="24" x="0" class="er attributeBoxOdd"/><text style="dominant-baseline: middle; font-size: 10.2px;" transform="translate(5,35)" y="0" x="0" id="text-entity-User-c73f395a-1b06-46bb-b7da-6ad6484ed2ae-attr-1-type" class="er entityLabel">DateTime</text><rect height="22" width="68.1553955078125" y="24" x="54.095550537109375" class="er attributeBoxOdd"/><text style="dominant-baseline: middle; font-size: 10.2px;" transform="translate(59.095550537109375,35)" y="0" x="0" id="text-entity-User-c73f395a-1b06-46bb-b7da-6ad6484ed2ae-attr-1-name" class="er entityLabel">createdAt</text><rect height="22" width="22.68768310546875" y="24" x="122.25094604492188" class="er attributeBoxOdd"/><text style="dominant-baseline: middle; font-size: 10.2px;" transform="translate(127.25094604492188,35)" y="0" x="0" id="text-entity-User-c73f395a-1b06-46bb-b7da-6ad6484ed2ae-attr-1-key" class="er entityLabel"/><rect height="22" width="47.21253967285156" y="24" x="144.93862915039062" class="er attributeBoxOdd"/><text style="dominant-baseline: middle; font-size: 10.2px;" transform="translate(149.93862915039062,35)" y="0" x="0" id="text-entity-User-c73f395a-1b06-46bb-b7da-6ad6484ed2ae-attr-1-comment" class="er entityLabel"/><rect height="22" width="54.095550537109375" y="46" x="0" class="er attributeBoxEven"/><text style="dominant-baseline: middle; font-size: 10.2px;" transform="translate(5,57)" y="0" x="0" id="text-entity-User-c73f395a-1b06-46bb-b7da-6ad6484ed2ae-attr-2-type" class="er entityLabel">DateTime</text><rect height="22" width="68.1553955078125" y="46" x="54.095550537109375" class="er attributeBoxEven"/><text style="dominant-baseline: middle; font-size: 10.2px;" transform="translate(59.095550537109375,57)" y="0" x="0" id="text-entity-User-c73f395a-1b06-46bb-b7da-6ad6484ed2ae-attr-2-name" class="er entityLabel">updatedAt</text><rect height="22" width="22.68768310546875" y="46" x="122.25094604492188" class="er attributeBoxEven"/><text style="dominant-baseline: middle; font-size: 10.2px;" transform="translate(127.25094604492188,57)" y="0" x="0" id="text-entity-User-c73f395a-1b06-46bb-b7da-6ad6484ed2ae-attr-2-key" class="er entityLabel"/><rect height="22" width="47.21253967285156" y="46" x="144.93862915039062" class="er attributeBoxEven"/><text style="dominant-baseline: middle; font-size: 10.2px;" transform="translate(149.93862915039062,57)" y="0" x="0" id="text-entity-User-c73f395a-1b06-46bb-b7da-6ad6484ed2ae-attr-2-comment" class="er entityLabel"/><rect height="22" width="54.095550537109375" y="68" x="0" class="er attributeBoxOdd"/><text style="dominant-baseline: middle; font-size: 10.2px;" transform="translate(5,79)" y="0" x="0" id="text-entity-User-c73f395a-1b06-46bb-b7da-6ad6484ed2ae-attr-3-type" class="er entityLabel">String</text><rect height="22" width="68.1553955078125" y="68" x="54.095550537109375" class="er attributeBoxOdd"/><text style="dominant-baseline: middle; font-size: 10.2px;" transform="translate(59.095550537109375,79)" y="0" x="0" id="text-entity-User-c73f395a-1b06-46bb-b7da-6ad6484ed2ae-attr-3-name" class="er entityLabel">userId</text><rect height="22" width="22.68768310546875" y="68" x="122.25094604492188" class="er attributeBoxOdd"/><text style="dominant-baseline: middle; font-size: 10.2px;" transform="translate(127.25094604492188,79)" y="0" x="0" id="text-entity-User-c73f395a-1b06-46bb-b7da-6ad6484ed2ae-attr-3-key" class="er entityLabel">PK</text><rect height="22" width="47.21253967285156" y="68" x="144.93862915039062" class="er attributeBoxOdd"/><text style="dominant-baseline: middle; font-size: 10.2px;" transform="translate(149.93862915039062,79)" y="0" x="0" id="text-entity-User-c73f395a-1b06-46bb-b7da-6ad6484ed2ae-attr-3-comment" class="er entityLabel"/><rect height="22" width="54.095550537109375" y="90" x="0" class="er attributeBoxEven"/><text style="dominant-baseline: middle; font-size: 10.2px;" transform="translate(5,101)" y="0" x="0" id="text-entity-User-c73f395a-1b06-46bb-b7da-6ad6484ed2ae-attr-4-type" class="er entityLabel">String</text><rect height="22" width="68.1553955078125" y="90" x="54.095550537109375" class="er attributeBoxEven"/><text style="dominant-baseline: middle; font-size: 10.2px;" transform="translate(59.095550537109375,101)" y="0" x="0" id="text-entity-User-c73f395a-1b06-46bb-b7da-6ad6484ed2ae-attr-4-name" class="er entityLabel">name</text><rect height="22" width="22.68768310546875" y="90" x="122.25094604492188" class="er attributeBoxEven"/><text style="dominant-baseline: middle; font-size: 10.2px;" transform="translate(127.25094604492188,101)" y="0" x="0" id="text-entity-User-c73f395a-1b06-46bb-b7da-6ad6484ed2ae-attr-4-key" class="er entityLabel"/><rect height="22" width="47.21253967285156" y="90" x="144.93862915039062" class="er attributeBoxEven"/><text style="dominant-baseline: middle; font-size: 10.2px;" transform="translate(149.93862915039062,101)" y="0" x="0" id="text-entity-User-c73f395a-1b06-46bb-b7da-6ad6484ed2ae-attr-4-comment" class="er entityLabel"/><rect height="22" width="54.095550537109375" y="112" x="0" class="er attributeBoxOdd"/><text style="dominant-baseline: middle; font-size: 10.2px;" transform="translate(5,123)" y="0" x="0" id="text-entity-User-c73f395a-1b06-46bb-b7da-6ad6484ed2ae-attr-5-type" class="er entityLabel">String</text><rect height="22" width="68.1553955078125" y="112" x="54.095550537109375" class="er attributeBoxOdd"/><text style="dominant-baseline: middle; font-size: 10.2px;" transform="translate(59.095550537109375,123)" y="0" x="0" id="text-entity-User-c73f395a-1b06-46bb-b7da-6ad6484ed2ae-attr-5-name" class="er entityLabel">password</text><rect height="22" width="22.68768310546875" y="112" x="122.25094604492188" class="er attributeBoxOdd"/><text style="dominant-baseline: middle; font-size: 10.2px;" transform="translate(127.25094604492188,123)" y="0" x="0" id="text-entity-User-c73f395a-1b06-46bb-b7da-6ad6484ed2ae-attr-5-key" class="er entityLabel"/><rect height="22" width="47.21253967285156" y="112" x="144.93862915039062" class="er attributeBoxOdd"/><text style="dominant-baseline: middle; font-size: 10.2px;" transform="translate(149.93862915039062,123)" y="0" x="0" id="text-entity-User-c73f395a-1b06-46bb-b7da-6ad6484ed2ae-attr-5-comment" class="er entityLabel"/><rect height="22" width="54.095550537109375" y="134" x="0" class="er attributeBoxEven"/><text style="dominant-baseline: middle; font-size: 10.2px;" transform="translate(5,145)" y="0" x="0" id="text-entity-User-c73f395a-1b06-46bb-b7da-6ad6484ed2ae-attr-6-type" class="er entityLabel">Role</text><rect height="22" width="68.1553955078125" y="134" x="54.095550537109375" class="er attributeBoxEven"/><text style="dominant-baseline: middle; font-size: 10.2px;" transform="translate(59.095550537109375,145)" y="0" x="0" id="text-entity-User-c73f395a-1b06-46bb-b7da-6ad6484ed2ae-attr-6-name" class="er entityLabel">role</text><rect height="22" width="22.68768310546875" y="134" x="122.25094604492188" class="er attributeBoxEven"/><text style="dominant-baseline: middle; font-size: 10.2px;" transform="translate(127.25094604492188,145)" y="0" x="0" id="text-entity-User-c73f395a-1b06-46bb-b7da-6ad6484ed2ae-attr-6-key" class="er entityLabel"/><rect height="22" width="47.21253967285156" y="134" x="144.93862915039062" class="er attributeBoxEven"/><text style="dominant-baseline: middle; font-size: 10.2px;" transform="translate(149.93862915039062,145)" y="0" x="0" id="text-entity-User-c73f395a-1b06-46bb-b7da-6ad6484ed2ae-attr-6-comment" class="er entityLabel"/><rect height="22" width="54.095550537109375" y="156" x="0" class="er attributeBoxOdd"/><text style="dominant-baseline: middle; font-size: 10.2px;" transform="translate(5,167)" y="0" x="0" id="text-entity-User-c73f395a-1b06-46bb-b7da-6ad6484ed2ae-attr-7-type" class="er entityLabel">String</text><rect height="22" width="68.1553955078125" y="156" x="54.095550537109375" class="er attributeBoxOdd"/><text style="dominant-baseline: middle; font-size: 10.2px;" transform="translate(59.095550537109375,167)" y="0" x="0" id="text-entity-User-c73f395a-1b06-46bb-b7da-6ad6484ed2ae-attr-7-name" class="er entityLabel">profileImage</text><rect height="22" width="22.68768310546875" y="156" x="122.25094604492188" class="er attributeBoxOdd"/><text style="dominant-baseline: middle; font-size: 10.2px;" transform="translate(127.25094604492188,167)" y="0" x="0" id="text-entity-User-c73f395a-1b06-46bb-b7da-6ad6484ed2ae-attr-7-key" class="er entityLabel"/><rect height="22" width="47.21253967285156" y="156" x="144.93862915039062" class="er attributeBoxOdd"/><text style="dominant-baseline: middle; font-size: 10.2px;" transform="translate(149.93862915039062,167)" y="0" x="0" id="text-entity-User-c73f395a-1b06-46bb-b7da-6ad6484ed2ae-attr-7-comment" class="er entityLabel">nullable</text></g><g transform="translate(55.533931732177734,407 )" id="entity-Chatroom-b0764160-2c58-47e0-8bed-fe232701ad99"><rect height="200" width="185.40261840820312" y="0" x="0" class="er entityBox"/><text style="dominant-baseline: middle; text-anchor: middle; font-size: 12px;" transform="translate(92.70130920410156,12)" y="0" x="0" id="text-entity-Chatroom-b0764160-2c58-47e0-8bed-fe232701ad99" class="er entityLabel">Chatroom</text><rect height="22" width="54.095550537109375" y="24" x="0" class="er attributeBoxOdd"/><text style="dominant-baseline: middle; font-size: 10.2px;" transform="translate(5,35)" y="0" x="0" id="text-entity-Chatroom-b0764160-2c58-47e0-8bed-fe232701ad99-attr-1-type" class="er entityLabel">Int</text><rect height="22" width="61.40684509277344" y="24" x="54.095550537109375" class="er attributeBoxOdd"/><text style="dominant-baseline: middle; font-size: 10.2px;" transform="translate(59.095550537109375,35)" y="0" x="0" id="text-entity-Chatroom-b0764160-2c58-47e0-8bed-fe232701ad99-attr-1-name" class="er entityLabel">id</text><rect height="22" width="22.68768310546875" y="24" x="115.50239562988281" class="er attributeBoxOdd"/><text style="dominant-baseline: middle; font-size: 10.2px;" transform="translate(120.50239562988281,35)" y="0" x="0" id="text-entity-Chatroom-b0764160-2c58-47e0-8bed-fe232701ad99-attr-1-key" class="er entityLabel">PK</text><rect height="22" width="47.21253967285156" y="24" x="138.19007873535156" class="er attributeBoxOdd"/><text style="dominant-baseline: middle; font-size: 10.2px;" transform="translate(143.19007873535156,35)" y="0" x="0" id="text-entity-Chatroom-b0764160-2c58-47e0-8bed-fe232701ad99-attr-1-comment" class="er entityLabel"/><rect height="22" width="54.095550537109375" y="46" x="0" class="er attributeBoxEven"/><text style="dominant-baseline: middle; font-size: 10.2px;" transform="translate(5,57)" y="0" x="0" id="text-entity-Chatroom-b0764160-2c58-47e0-8bed-fe232701ad99-attr-2-type" class="er entityLabel">DateTime</text><rect height="22" width="61.40684509277344" y="46" x="54.095550537109375" class="er attributeBoxEven"/><text style="dominant-baseline: middle; font-size: 10.2px;" transform="translate(59.095550537109375,57)" y="0" x="0" id="text-entity-Chatroom-b0764160-2c58-47e0-8bed-fe232701ad99-attr-2-name" class="er entityLabel">createdAt</text><rect height="22" width="22.68768310546875" y="46" x="115.50239562988281" class="er attributeBoxEven"/><text style="dominant-baseline: middle; font-size: 10.2px;" transform="translate(120.50239562988281,57)" y="0" x="0" id="text-entity-Chatroom-b0764160-2c58-47e0-8bed-fe232701ad99-attr-2-key" class="er entityLabel"/><rect height="22" width="47.21253967285156" y="46" x="138.19007873535156" class="er attributeBoxEven"/><text style="dominant-baseline: middle; font-size: 10.2px;" transform="translate(143.19007873535156,57)" y="0" x="0" id="text-entity-Chatroom-b0764160-2c58-47e0-8bed-fe232701ad99-attr-2-comment" class="er entityLabel"/><rect height="22" width="54.095550537109375" y="68" x="0" class="er attributeBoxOdd"/><text style="dominant-baseline: middle; font-size: 10.2px;" transform="translate(5,79)" y="0" x="0" id="text-entity-Chatroom-b0764160-2c58-47e0-8bed-fe232701ad99-attr-3-type" class="er entityLabel">DateTime</text><rect height="22" width="61.40684509277344" y="68" x="54.095550537109375" class="er attributeBoxOdd"/><text style="dominant-baseline: middle; font-size: 10.2px;" transform="translate(59.095550537109375,79)" y="0" x="0" id="text-entity-Chatroom-b0764160-2c58-47e0-8bed-fe232701ad99-attr-3-name" class="er entityLabel">updatedAt</text><rect height="22" width="22.68768310546875" y="68" x="115.50239562988281" class="er attributeBoxOdd"/><text style="dominant-baseline: middle; font-size: 10.2px;" transform="translate(120.50239562988281,79)" y="0" x="0" id="text-entity-Chatroom-b0764160-2c58-47e0-8bed-fe232701ad99-attr-3-key" class="er entityLabel"/><rect height="22" width="47.21253967285156" y="68" x="138.19007873535156" class="er attributeBoxOdd"/><text style="dominant-baseline: middle; font-size: 10.2px;" transform="translate(143.19007873535156,79)" y="0" x="0" id="text-entity-Chatroom-b0764160-2c58-47e0-8bed-fe232701ad99-attr-3-comment" class="er entityLabel"/><rect height="22" width="54.095550537109375" y="90" x="0" class="er attributeBoxEven"/><text style="dominant-baseline: middle; font-size: 10.2px;" transform="translate(5,101)" y="0" x="0" id="text-entity-Chatroom-b0764160-2c58-47e0-8bed-fe232701ad99-attr-4-type" class="er entityLabel">String</text><rect height="22" width="61.40684509277344" y="90" x="54.095550537109375" class="er attributeBoxEven"/><text style="dominant-baseline: middle; font-size: 10.2px;" transform="translate(59.095550537109375,101)" y="0" x="0" id="text-entity-Chatroom-b0764160-2c58-47e0-8bed-fe232701ad99-attr-4-name" class="er entityLabel">name</text><rect height="22" width="22.68768310546875" y="90" x="115.50239562988281" class="er attributeBoxEven"/><text style="dominant-baseline: middle; font-size: 10.2px;" transform="translate(120.50239562988281,101)" y="0" x="0" id="text-entity-Chatroom-b0764160-2c58-47e0-8bed-fe232701ad99-attr-4-key" class="er entityLabel"/><rect height="22" width="47.21253967285156" y="90" x="138.19007873535156" class="er attributeBoxEven"/><text style="dominant-baseline: middle; font-size: 10.2px;" transform="translate(143.19007873535156,101)" y="0" x="0" id="text-entity-Chatroom-b0764160-2c58-47e0-8bed-fe232701ad99-attr-4-comment" class="er entityLabel"/><rect height="22" width="54.095550537109375" y="112" x="0" class="er attributeBoxOdd"/><text style="dominant-baseline: middle; font-size: 10.2px;" transform="translate(5,123)" y="0" x="0" id="text-entity-Chatroom-b0764160-2c58-47e0-8bed-fe232701ad99-attr-5-type" class="er entityLabel">String</text><rect height="22" width="61.40684509277344" y="112" x="54.095550537109375" class="er attributeBoxOdd"/><text style="dominant-baseline: middle; font-size: 10.2px;" transform="translate(59.095550537109375,123)" y="0" x="0" id="text-entity-Chatroom-b0764160-2c58-47e0-8bed-fe232701ad99-attr-5-name" class="er entityLabel">chatImage</text><rect height="22" width="22.68768310546875" y="112" x="115.50239562988281" class="er attributeBoxOdd"/><text style="dominant-baseline: middle; font-size: 10.2px;" transform="translate(120.50239562988281,123)" y="0" x="0" id="text-entity-Chatroom-b0764160-2c58-47e0-8bed-fe232701ad99-attr-5-key" class="er entityLabel"/><rect height="22" width="47.21253967285156" y="112" x="138.19007873535156" class="er attributeBoxOdd"/><text style="dominant-baseline: middle; font-size: 10.2px;" transform="translate(143.19007873535156,123)" y="0" x="0" id="text-entity-Chatroom-b0764160-2c58-47e0-8bed-fe232701ad99-attr-5-comment" class="er entityLabel">nullable</text><rect height="22" width="54.095550537109375" y="134" x="0" class="er attributeBoxEven"/><text style="dominant-baseline: middle; font-size: 10.2px;" transform="translate(5,145)" y="0" x="0" id="text-entity-Chatroom-b0764160-2c58-47e0-8bed-fe232701ad99-attr-6-type" class="er entityLabel">String</text><rect height="22" width="61.40684509277344" y="134" x="54.095550537109375" class="er attributeBoxEven"/><text style="dominant-baseline: middle; font-size: 10.2px;" transform="translate(59.095550537109375,145)" y="0" x="0" id="text-entity-Chatroom-b0764160-2c58-47e0-8bed-fe232701ad99-attr-6-name" class="er entityLabel">description</text><rect height="22" width="22.68768310546875" y="134" x="115.50239562988281" class="er attributeBoxEven"/><text style="dominant-baseline: middle; font-size: 10.2px;" transform="translate(120.50239562988281,145)" y="0" x="0" id="text-entity-Chatroom-b0764160-2c58-47e0-8bed-fe232701ad99-attr-6-key" class="er entityLabel"/><rect height="22" width="47.21253967285156" y="134" x="138.19007873535156" class="er attributeBoxEven"/><text style="dominant-baseline: middle; font-size: 10.2px;" transform="translate(143.19007873535156,145)" y="0" x="0" id="text-entity-Chatroom-b0764160-2c58-47e0-8bed-fe232701ad99-attr-6-comment" class="er entityLabel"/><rect height="22" width="54.095550537109375" y="156" x="0" class="er attributeBoxOdd"/><text style="dominant-baseline: middle; font-size: 10.2px;" transform="translate(5,167)" y="0" x="0" id="text-entity-Chatroom-b0764160-2c58-47e0-8bed-fe232701ad99-attr-7-type" class="er entityLabel">Boolean</text><rect height="22" width="61.40684509277344" y="156" x="54.095550537109375" class="er attributeBoxOdd"/><text style="dominant-baseline: middle; font-size: 10.2px;" transform="translate(59.095550537109375,167)" y="0" x="0" id="text-entity-Chatroom-b0764160-2c58-47e0-8bed-fe232701ad99-attr-7-name" class="er entityLabel">private</text><rect height="22" width="22.68768310546875" y="156" x="115.50239562988281" class="er attributeBoxOdd"/><text style="dominant-baseline: middle; font-size: 10.2px;" transform="translate(120.50239562988281,167)" y="0" x="0" id="text-entity-Chatroom-b0764160-2c58-47e0-8bed-fe232701ad99-attr-7-key" class="er entityLabel"/><rect height="22" width="47.21253967285156" y="156" x="138.19007873535156" class="er attributeBoxOdd"/><text style="dominant-baseline: middle; font-size: 10.2px;" transform="translate(143.19007873535156,167)" y="0" x="0" id="text-entity-Chatroom-b0764160-2c58-47e0-8bed-fe232701ad99-attr-7-comment" class="er entityLabel"/><rect height="22" width="54.095550537109375" y="178" x="0" class="er attributeBoxEven"/><text style="dominant-baseline: middle; font-size: 10.2px;" transform="translate(5,189)" y="0" x="0" id="text-entity-Chatroom-b0764160-2c58-47e0-8bed-fe232701ad99-attr-8-type" class="er entityLabel">String</text><rect height="22" width="61.40684509277344" y="178" x="54.095550537109375" class="er attributeBoxEven"/><text style="dominant-baseline: middle; font-size: 10.2px;" transform="translate(59.095550537109375,189)" y="0" x="0" id="text-entity-Chatroom-b0764160-2c58-47e0-8bed-fe232701ad99-attr-8-name" class="er entityLabel">creatorId</text><rect height="22" width="22.68768310546875" y="178" x="115.50239562988281" class="er attributeBoxEven"/><text style="dominant-baseline: middle; font-size: 10.2px;" transform="translate(120.50239562988281,189)" y="0" x="0" id="text-entity-Chatroom-b0764160-2c58-47e0-8bed-fe232701ad99-attr-8-key" class="er entityLabel"/><rect height="22" width="47.21253967285156" y="178" x="138.19007873535156" class="er attributeBoxEven"/><text style="dominant-baseline: middle; font-size: 10.2px;" transform="translate(143.19007873535156,189)" y="0" x="0" id="text-entity-Chatroom-b0764160-2c58-47e0-8bed-fe232701ad99-attr-8-comment" class="er entityLabel"/></g><g transform="translate(20,195 )" id="entity-Message-4d3b5ddb-b122-40d3-851d-c7f483aeeb69"><rect height="112" width="135.38717651367188" y="0" x="0" class="er entityBox"/><text style="dominant-baseline: middle; text-anchor: middle; font-size: 12px;" transform="translate(67.69358825683594,12)" y="0" x="0" id="text-entity-Message-4d3b5ddb-b122-40d3-851d-c7f483aeeb69" class="er entityLabel">Message</text><rect height="22" width="54.095550537109375" y="24" x="0" class="er attributeBoxOdd"/><text style="dominant-baseline: middle; font-size: 10.2px;" transform="translate(5,35)" y="0" x="0" id="text-entity-Message-4d3b5ddb-b122-40d3-851d-c7f483aeeb69-attr-1-type" class="er entityLabel">Int</text><rect height="22" width="58.60394287109375" y="24" x="54.095550537109375" class="er attributeBoxOdd"/><text style="dominant-baseline: middle; font-size: 10.2px;" transform="translate(59.095550537109375,35)" y="0" x="0" id="text-entity-Message-4d3b5ddb-b122-40d3-851d-c7f483aeeb69-attr-1-name" class="er entityLabel">id</text><rect height="22" width="22.68768310546875" y="24" x="112.69949340820312" class="er attributeBoxOdd"/><text style="dominant-baseline: middle; font-size: 10.2px;" transform="translate(117.69949340820312,35)" y="0" x="0" id="text-entity-Message-4d3b5ddb-b122-40d3-851d-c7f483aeeb69-attr-1-key" class="er entityLabel">PK</text><rect height="22" width="54.095550537109375" y="46" x="0" class="er attributeBoxEven"/><text style="dominant-baseline: middle; font-size: 10.2px;" transform="translate(5,57)" y="0" x="0" id="text-entity-Message-4d3b5ddb-b122-40d3-851d-c7f483aeeb69-attr-2-type" class="er entityLabel">DateTime</text><rect height="22" width="58.60394287109375" y="46" x="54.095550537109375" class="er attributeBoxEven"/><text style="dominant-baseline: middle; font-size: 10.2px;" transform="translate(59.095550537109375,57)" y="0" x="0" id="text-entity-Message-4d3b5ddb-b122-40d3-851d-c7f483aeeb69-attr-2-name" class="er entityLabel">sentAt</text><rect height="22" width="22.68768310546875" y="46" x="112.69949340820312" class="er attributeBoxEven"/><text style="dominant-baseline: middle; font-size: 10.2px;" transform="translate(117.69949340820312,57)" y="0" x="0" id="text-entity-Message-4d3b5ddb-b122-40d3-851d-c7f483aeeb69-attr-2-key" class="er entityLabel"/><rect height="22" width="54.095550537109375" y="68" x="0" class="er attributeBoxOdd"/><text style="dominant-baseline: middle; font-size: 10.2px;" transform="translate(5,79)" y="0" x="0" id="text-entity-Message-4d3b5ddb-b122-40d3-851d-c7f483aeeb69-attr-3-type" class="er entityLabel">DateTime</text><rect height="22" width="58.60394287109375" y="68" x="54.095550537109375" class="er attributeBoxOdd"/><text style="dominant-baseline: middle; font-size: 10.2px;" transform="translate(59.095550537109375,79)" y="0" x="0" id="text-entity-Message-4d3b5ddb-b122-40d3-851d-c7f483aeeb69-attr-3-name" class="er entityLabel">updatedAt</text><rect height="22" width="22.68768310546875" y="68" x="112.69949340820312" class="er attributeBoxOdd"/><text style="dominant-baseline: middle; font-size: 10.2px;" transform="translate(117.69949340820312,79)" y="0" x="0" id="text-entity-Message-4d3b5ddb-b122-40d3-851d-c7f483aeeb69-attr-3-key" class="er entityLabel"/><rect height="22" width="54.095550537109375" y="90" x="0" class="er attributeBoxEven"/><text style="dominant-baseline: middle; font-size: 10.2px;" transform="translate(5,101)" y="0" x="0" id="text-entity-Message-4d3b5ddb-b122-40d3-851d-c7f483aeeb69-attr-4-type" class="er entityLabel">String</text><rect height="22" width="58.60394287109375" y="90" x="54.095550537109375" class="er attributeBoxEven"/><text style="dominant-baseline: middle; font-size: 10.2px;" transform="translate(59.095550537109375,101)" y="0" x="0" id="text-entity-Message-4d3b5ddb-b122-40d3-851d-c7f483aeeb69-attr-4-name" class="er entityLabel">content</text><rect height="22" width="22.68768310546875" y="90" x="112.69949340820312" class="er attributeBoxEven"/><text style="dominant-baseline: middle; font-size: 10.2px;" transform="translate(117.69949340820312,101)" y="0" x="0" id="text-entity-Message-4d3b5ddb-b122-40d3-851d-c7f483aeeb69-attr-4-key" class="er entityLabel"/></g><g transform="translate(451.4704818725586,20 )" id="entity-SeenBy-0c8435a1-c081-4460-b3be-71cf31522a0d"><rect height="75" width="100" y="0" x="0" class="er entityBox"/><text style="dominant-baseline: middle; text-anchor: middle; font-size: 12px;" transform="translate(50,37.5)" y="0" x="0" id="text-entity-SeenBy-0c8435a1-c081-4460-b3be-71cf31522a0d" class="er entityLabel">SeenBy</text></g><g transform="translate(290.92882919311523,213.5 )" id="entity-ChatInvite-966ba2ec-9502-407e-a34f-00f272b40f90"><rect height="75" width="100" y="0" x="0" class="er entityBox"/><text style="dominant-baseline: middle; text-anchor: middle; font-size: 12px;" transform="translate(50,37.5)" y="0" x="0" id="text-entity-ChatInvite-966ba2ec-9502-407e-a34f-00f272b40f90" class="er entityLabel">ChatInvite</text></g><g transform="translate(665.1527709960938,213.5 )" id="entity-UserOnTeam-de4a1d3b-f1af-4359-8a0b-0f5968e2c9a1"><rect height="75" width="100" y="0" x="0" class="er entityBox"/><text style="dominant-baseline: middle; text-anchor: middle; font-size: 12px;" transform="translate(50,37.5)" y="0" x="0" id="text-entity-UserOnTeam-de4a1d3b-f1af-4359-8a0b-0f5968e2c9a1" class="er entityLabel">UserOnTeam</text></g><g transform="translate(747.5460662841797,440 )" id="entity-Team-84a3cb33-f562-4b8a-a0cf-8975f2773f49"><rect height="134" width="185.21340942382812" y="0" x="0" class="er entityBox"/><text style="dominant-baseline: middle; text-anchor: middle; font-size: 12px;" transform="translate(92.60670471191406,12)" y="0" x="0" id="text-entity-Team-84a3cb33-f562-4b8a-a0cf-8975f2773f49" class="er entityLabel">Team</text><rect height="22" width="54.095550537109375" y="24" x="0" class="er attributeBoxOdd"/><text style="dominant-baseline: middle; font-size: 10.2px;" transform="translate(5,35)" y="0" x="0" id="text-entity-Team-84a3cb33-f562-4b8a-a0cf-8975f2773f49-attr-1-type" class="er entityLabel">Int</text><rect height="22" width="61.21763610839844" y="24" x="54.095550537109375" class="er attributeBoxOdd"/><text style="dominant-baseline: middle; font-size: 10.2px;" transform="translate(59.095550537109375,35)" y="0" x="0" id="text-entity-Team-84a3cb33-f562-4b8a-a0cf-8975f2773f49-attr-1-name" class="er entityLabel">id</text><rect height="22" width="22.68768310546875" y="24" x="115.31318664550781" class="er attributeBoxOdd"/><text style="dominant-baseline: middle; font-size: 10.2px;" transform="translate(120.31318664550781,35)" y="0" x="0" id="text-entity-Team-84a3cb33-f562-4b8a-a0cf-8975f2773f49-attr-1-key" class="er entityLabel">PK</text><rect height="22" width="47.21253967285156" y="24" x="138.00086975097656" class="er attributeBoxOdd"/><text style="dominant-baseline: middle; font-size: 10.2px;" transform="translate(143.00086975097656,35)" y="0" x="0" id="text-entity-Team-84a3cb33-f562-4b8a-a0cf-8975f2773f49-attr-1-comment" class="er entityLabel"/><rect height="22" width="54.095550537109375" y="46" x="0" class="er attributeBoxEven"/><text style="dominant-baseline: middle; font-size: 10.2px;" transform="translate(5,57)" y="0" x="0" id="text-entity-Team-84a3cb33-f562-4b8a-a0cf-8975f2773f49-attr-2-type" class="er entityLabel">DateTime</text><rect height="22" width="61.21763610839844" y="46" x="54.095550537109375" class="er attributeBoxEven"/><text style="dominant-baseline: middle; font-size: 10.2px;" transform="translate(59.095550537109375,57)" y="0" x="0" id="text-entity-Team-84a3cb33-f562-4b8a-a0cf-8975f2773f49-attr-2-name" class="er entityLabel">createdAt</text><rect height="22" width="22.68768310546875" y="46" x="115.31318664550781" class="er attributeBoxEven"/><text style="dominant-baseline: middle; font-size: 10.2px;" transform="translate(120.31318664550781,57)" y="0" x="0" id="text-entity-Team-84a3cb33-f562-4b8a-a0cf-8975f2773f49-attr-2-key" class="er entityLabel"/><rect height="22" width="47.21253967285156" y="46" x="138.00086975097656" class="er attributeBoxEven"/><text style="dominant-baseline: middle; font-size: 10.2px;" transform="translate(143.00086975097656,57)" y="0" x="0" id="text-entity-Team-84a3cb33-f562-4b8a-a0cf-8975f2773f49-attr-2-comment" class="er entityLabel"/><rect height="22" width="54.095550537109375" y="68" x="0" class="er attributeBoxOdd"/><text style="dominant-baseline: middle; font-size: 10.2px;" transform="translate(5,79)" y="0" x="0" id="text-entity-Team-84a3cb33-f562-4b8a-a0cf-8975f2773f49-attr-3-type" class="er entityLabel">DateTime</text><rect height="22" width="61.21763610839844" y="68" x="54.095550537109375" class="er attributeBoxOdd"/><text style="dominant-baseline: middle; font-size: 10.2px;" transform="translate(59.095550537109375,79)" y="0" x="0" id="text-entity-Team-84a3cb33-f562-4b8a-a0cf-8975f2773f49-attr-3-name" class="er entityLabel">updatedAt</text><rect height="22" width="22.68768310546875" y="68" x="115.31318664550781" class="er attributeBoxOdd"/><text style="dominant-baseline: middle; font-size: 10.2px;" transform="translate(120.31318664550781,79)" y="0" x="0" id="text-entity-Team-84a3cb33-f562-4b8a-a0cf-8975f2773f49-attr-3-key" class="er entityLabel"/><rect height="22" width="47.21253967285156" y="68" x="138.00086975097656" class="er attributeBoxOdd"/><text style="dominant-baseline: middle; font-size: 10.2px;" transform="translate(143.00086975097656,79)" y="0" x="0" id="text-entity-Team-84a3cb33-f562-4b8a-a0cf-8975f2773f49-attr-3-comment" class="er entityLabel"/><rect height="22" width="54.095550537109375" y="90" x="0" class="er attributeBoxEven"/><text style="dominant-baseline: middle; font-size: 10.2px;" transform="translate(5,101)" y="0" x="0" id="text-entity-Team-84a3cb33-f562-4b8a-a0cf-8975f2773f49-attr-4-type" class="er entityLabel">String</text><rect height="22" width="61.21763610839844" y="90" x="54.095550537109375" class="er attributeBoxEven"/><text style="dominant-baseline: middle; font-size: 10.2px;" transform="translate(59.095550537109375,101)" y="0" x="0" id="text-entity-Team-84a3cb33-f562-4b8a-a0cf-8975f2773f49-attr-4-name" class="er entityLabel">name</text><rect height="22" width="22.68768310546875" y="90" x="115.31318664550781" class="er attributeBoxEven"/><text style="dominant-baseline: middle; font-size: 10.2px;" transform="translate(120.31318664550781,101)" y="0" x="0" id="text-entity-Team-84a3cb33-f562-4b8a-a0cf-8975f2773f49-attr-4-key" class="er entityLabel"/><rect height="22" width="47.21253967285156" y="90" x="138.00086975097656" class="er attributeBoxEven"/><text style="dominant-baseline: middle; font-size: 10.2px;" transform="translate(143.00086975097656,101)" y="0" x="0" id="text-entity-Team-84a3cb33-f562-4b8a-a0cf-8975f2773f49-attr-4-comment" class="er entityLabel"/><rect height="22" width="54.095550537109375" y="112" x="0" class="er attributeBoxOdd"/><text style="dominant-baseline: middle; font-size: 10.2px;" transform="translate(5,123)" y="0" x="0" id="text-entity-Team-84a3cb33-f562-4b8a-a0cf-8975f2773f49-attr-5-type" class="er entityLabel">String</text><rect height="22" width="61.21763610839844" y="112" x="54.095550537109375" class="er attributeBoxOdd"/><text style="dominant-baseline: middle; font-size: 10.2px;" transform="translate(59.095550537109375,123)" y="0" x="0" id="text-entity-Team-84a3cb33-f562-4b8a-a0cf-8975f2773f49-attr-5-name" class="er entityLabel">teamImage</text><rect height="22" width="22.68768310546875" y="112" x="115.31318664550781" class="er attributeBoxOdd"/><text style="dominant-baseline: middle; font-size: 10.2px;" transform="translate(120.31318664550781,123)" y="0" x="0" id="text-entity-Team-84a3cb33-f562-4b8a-a0cf-8975f2773f49-attr-5-key" class="er entityLabel"/><rect height="22" width="47.21253967285156" y="112" x="138.00086975097656" class="er attributeBoxOdd"/><text style="dominant-baseline: middle; font-size: 10.2px;" transform="translate(143.00086975097656,123)" y="0" x="0" id="text-entity-Team-84a3cb33-f562-4b8a-a0cf-8975f2773f49-attr-5-comment" class="er entityLabel">nullable</text></g><rect height="14" width="55.66796875" y="644.5" x="448.6365051269531" class="er relationshipLabelBox"/><text style="text-anchor: middle; dominant-baseline: middle; font-size: 12px;" y="651.5" x="476.4704895019531" id="rel1" class="er relationshipLabel">enum:role</text><rect height="14" width="37.189453125" y="403.5045471191406" x="180.13404846191406" class="er relationshipLabelBox"/><text style="text-anchor: middle; dominant-baseline: middle; font-size: 12px;" y="410.5045471191406" x="198.72877502441406" id="rel2" class="er relationshipLabel">sender</text><rect height="14" width="51.103515625" y="348.334228515625" x="108.33416748046875" class="er relationshipLabelBox"/><text style="text-anchor: middle; dominant-baseline: middle; font-size: 12px;" y="355.334228515625" x="133.88592529296875" id="rel3" class="er relationshipLabel">chatroom</text><rect height="14" width="45.548828125" y="103.88427734375" x="232.8514404296875" class="er relationshipLabelBox"/><text style="text-anchor: middle; dominant-baseline: middle; font-size: 12px;" y="110.88427734375" x="255.6258544921875" id="rel4" class="er relationshipLabel">message</text><rect height="14" width="23.958984375" y="242.38613891601562" x="878.1724243164062" class="er relationshipLabelBox"/><text style="text-anchor: middle; dominant-baseline: middle; font-size: 12px;" y="249.38613891601562" x="890.1519165039062" id="rel5" class="er relationshipLabel">user</text><rect height="14" width="23.802734375" y="343.79925537109375" x="271.2305603027344" class="er relationshipLabelBox"/><text style="text-anchor: middle; dominant-baseline: middle; font-size: 12px;" y="350.79925537109375" x="283.1319274902344" id="rel6" class="er relationshipLabel">chat</text><rect height="14" width="23.958984375" y="347.1160583496094" x="378.5177917480469" class="er relationshipLabelBox"/><text style="text-anchor: middle; dominant-baseline: middle; font-size: 12px;" y="354.1160583496094" x="390.4972839355469" id="rel7" class="er relationshipLabel">user</text><rect height="14" width="23.958984375" y="338.3358154296875" x="579.1773681640625" class="er relationshipLabelBox"/><text style="text-anchor: middle; dominant-baseline: middle; font-size: 12px;" y="345.3358154296875" x="591.1568603515625" id="rel8" class="er relationshipLabel">user</text><rect height="14" width="27.607421875" y="357.52667236328125" x="755.3749389648438" class="er relationshipLabelBox"/><text style="text-anchor: middle; dominant-baseline: middle; font-size: 12px;" y="364.52667236328125" x="769.1786499023438" id="rel9" class="er relationshipLabel">team</text></svg>