<svg aria-roledescription="er" viewBox="0 0 877.759521484375 664" style="max-width: 877.76px; background-color: white;" xmlns:xlink="http://www.w3.org/1999/xlink" xmlns="http://www.w3.org/2000/svg" width="100%" id="mermaid-0"><style>#mermaid-0{font-family:"trebuchet ms",verdana,arial,sans-serif;font-size:16px;fill:#000000;}#mermaid-0 .error-icon{fill:#552222;}#mermaid-0 .error-text{fill:#552222;stroke:#552222;}#mermaid-0 .edge-thickness-normal{stroke-width:2px;}#mermaid-0 .edge-thickness-thick{stroke-width:3.5px;}#mermaid-0 .edge-pattern-solid{stroke-dasharray:0;}#mermaid-0 .edge-pattern-dashed{stroke-dasharray:3;}#mermaid-0 .edge-pattern-dotted{stroke-dasharray:2;}#mermaid-0 .marker{fill:#000000;stroke:#000000;}#mermaid-0 .marker.cross{stroke:#000000;}#mermaid-0 svg{font-family:"trebuchet ms",verdana,arial,sans-serif;font-size:16px;}#mermaid-0 .entityBox{fill:#cde498;stroke:#13540c;}#mermaid-0 .attributeBoxOdd{fill:#ffffff;stroke:#13540c;}#mermaid-0 .attributeBoxEven{fill:#f2f2f2;stroke:#13540c;}#mermaid-0 .relationshipLabelBox{fill:hsl(78.1578947368, 58.4615384615%, 84.5098039216%);opacity:0.7;background-color:hsl(78.1578947368, 58.4615384615%, 84.5098039216%);}#mermaid-0 .relationshipLabelBox rect{opacity:0.5;}#mermaid-0 .relationshipLine{stroke:#000000;}#mermaid-0 .entityTitleText{text-anchor:middle;font-size:18px;fill:#000000;}#mermaid-0 :root{--mermaid-font-family:"trebuchet ms",verdana,arial,sans-serif;}</style><g/><defs><marker orient="auto" markerHeight="18" markerWidth="18" refY="9" refX="0" id="ONLY_ONE_START"><path d="M9,0 L9,18 M15,0 L15,18" fill="none" stroke="gray"/></marker></defs><defs><marker orient="auto" markerHeight="18" markerWidth="18" refY="9" refX="18" id="ONLY_ONE_END"><path d="M3,0 L3,18 M9,0 L9,18" fill="none" stroke="gray"/></marker></defs><defs><marker orient="auto" markerHeight="18" markerWidth="30" refY="9" refX="0" id="ZERO_OR_ONE_START"><circle r="6" cy="9" cx="21" fill="white" stroke="gray"/><path d="M9,0 L9,18" fill="none" stroke="gray"/></marker></defs><defs><marker orient="auto" markerHeight="18" markerWidth="30" refY="9" refX="30" id="ZERO_OR_ONE_END"><circle r="6" cy="9" cx="9" fill="white" stroke="gray"/><path d="M21,0 L21,18" fill="none" stroke="gray"/></marker></defs><defs><marker orient="auto" markerHeight="36" markerWidth="45" refY="18" refX="18" id="ONE_OR_MORE_START"><path d="M0,18 Q 18,0 36,18 Q 18,36 0,18 M42,9 L42,27" fill="none" stroke="gray"/></marker></defs><defs><marker orient="auto" markerHeight="36" markerWidth="45" refY="18" refX="27" id="ONE_OR_MORE_END"><path d="M3,9 L3,27 M9,18 Q27,0 45,18 Q27,36 9,18" fill="none" stroke="gray"/></marker></defs><defs><marker orient="auto" markerHeight="36" markerWidth="57" refY="18" refX="18" id="ZERO_OR_MORE_START"><circle r="6" cy="18" cx="48" fill="white" stroke="gray"/><path d="M0,18 Q18,0 36,18 Q18,36 0,18" fill="none" stroke="gray"/></marker></defs><defs><marker orient="auto" markerHeight="36" markerWidth="57" refY="18" refX="39" id="ZERO_OR_MORE_END"><circle r="6" cy="18" cx="9" fill="white" stroke="gray"/><path d="M21,18 Q39,0 57,18 Q39,36 21,18" fill="none" stroke="gray"/></marker></defs><path style="stroke: gray; fill: none;" marker-start="url(#ZERO_OR_ONE_START)" marker-end="url(#ONLY_ONE_END)" d="M476.4704818725586,443L476.4704818725586,453.1666666666667C476.4704818725586,463.3333333333333,476.4704818725586,483.6666666666667,476.4704818725586,502.1666666666667C476.4704818725586,520.6666666666666,476.4704818725586,537.3333333333334,476.4704818725586,545.6666666666666L476.4704818725586,554" class="er relationshipLine"/><path style="stroke: gray; fill: none;" marker-start="url(#ZERO_OR_MORE_START)" marker-end="url(#ONLY_ONE_END)" d="M59.0611096243573,154L55.49985606310374,162.33333333333334C51.93860250185018,170.66666666666666,44.81609537934306,187.33333333333334,98.37172668543975,215.19260993022854C151.92735799153647,243.0518865271238,266.161127726237,282.1037730542476,323.2780125935872,301.6297163178095L380.3948974609375,321.1556595813714" class="er relationshipLine"/><path style="stroke: gray; fill: none;" marker-start="url(#ZERO_OR_MORE_START)" marker-end="url(#ONLY_ONE_END)" d="M116.32606688931457,154L119.88732045056814,162.33333333333334C123.44857401182169,170.66666666666666,130.5710811343288,187.33333333333334,136.91011247336016,204C143.24914381239148,220.66666666666666,148.80469936794705,237.33333333333334,151.58247714572482,245.66666666666666L154.3602549235026,254" class="er relationshipLine"/><path style="stroke: gray; fill: none;" marker-start="url(#ZERO_OR_MORE_START)" marker-end="url(#ONLY_ONE_END)" d="M380.1921335367056,124.5L363.8404504580376,137.75C347.48876737936945,151,314.7854012220334,177.5,293.1899155429286,199.08333333333334C271.5944298638238,220.66666666666666,261.10682466295026,237.33333333333334,255.86302206251355,245.66666666666666L250.6192194620768,254" class="er relationshipLine"/><path style="stroke: gray; fill: none;" marker-start="url(#ZERO_OR_MORE_START)" marker-end="url(#ONLY_ONE_END)" d="M442.49612289819964,124.5L448.1585160605928,137.75C453.820909222986,151,465.1456955477723,177.5,470.80808871016546,200.91666666666666C476.4704818725586,224.33333333333334,476.4704818725586,244.66666666666666,476.4704818725586,254.83333333333334L476.4704818725586,265" class="er relationshipLine"/><path style="stroke: gray; fill: none;" marker-start="url(#ZERO_OR_MORE_START)" marker-end="url(#ONLY_ONE_END)" d="M718.8895836365529,124.5L702.5432574361818,137.75C686.1969312358106,151,653.5042788350684,177.5,627.3748306143997,200.91666666666666C601.245382393731,224.33333333333334,581.6791383531358,244.66666666666666,571.8960163328383,254.83333333333334L562.1128943125407,265" class="er relationshipLine"/><path style="stroke: gray; fill: none;" marker-start="url(#ZERO_OR_MORE_START)" marker-end="url(#ONLY_ONE_END)" d="M765.1527709960938,124.5L765.1527709960938,137.75C765.1527709960938,151,765.1527709960938,177.5,765.1527709960938,204.58333333333334C765.1527709960938,231.66666666666666,765.1527709960938,259.3333333333333,765.1527709960938,273.1666666666667L765.1527709960938,287" class="er relationshipLine"/><g transform="translate(405.4684066772461,554 )" id="entity-Role-9fd78adc-e65d-4563-bffc-5c821b302f3f"><rect height="90" width="142.004150390625" y="0" x="0" class="er entityBox"/><text style="dominant-baseline: middle; text-anchor: middle; font-size: 12px;" transform="translate(71.0020751953125,12)" y="0" x="0" id="text-entity-Role-9fd78adc-e65d-4563-bffc-5c821b302f3f" class="er entityLabel">Role</text><rect height="22" width="71.0020751953125" y="24" x="0" class="er attributeBoxOdd"/><text style="dominant-baseline: middle; font-size: 10.2px;" transform="translate(5,35)" y="0" x="0" id="text-entity-Role-9fd78adc-e65d-4563-bffc-5c821b302f3f-attr-1-type" class="er entityLabel">EMPLOYEE</text><rect height="22" width="71.0020751953125" y="24" x="71.0020751953125" class="er attributeBoxOdd"/><text style="dominant-baseline: middle; font-size: 10.2px;" transform="translate(76.0020751953125,35)" y="0" x="0" id="text-entity-Role-9fd78adc-e65d-4563-bffc-5c821b302f3f-attr-1-name" class="er entityLabel">EMPLOYEE</text><rect height="22" width="71.0020751953125" y="46" x="0" class="er attributeBoxEven"/><text style="dominant-baseline: middle; font-size: 10.2px;" transform="translate(5,57)" y="0" x="0" id="text-entity-Role-9fd78adc-e65d-4563-bffc-5c821b302f3f-attr-2-type" class="er entityLabel">MANAGER</text><rect height="22" width="71.0020751953125" y="46" x="71.0020751953125" class="er attributeBoxEven"/><text style="dominant-baseline: middle; font-size: 10.2px;" transform="translate(76.0020751953125,57)" y="0" x="0" id="text-entity-Role-9fd78adc-e65d-4563-bffc-5c821b302f3f-attr-2-name" class="er entityLabel">MANAGER</text><rect height="22" width="71.0020751953125" y="68" x="0" class="er attributeBoxOdd"/><text style="dominant-baseline: middle; font-size: 10.2px;" transform="translate(5,79)" y="0" x="0" id="text-entity-Role-9fd78adc-e65d-4563-bffc-5c821b302f3f-attr-3-type" class="er entityLabel">TEAMLEADER</text><rect height="22" width="71.0020751953125" y="68" x="71.0020751953125" class="er attributeBoxOdd"/><text style="dominant-baseline: middle; font-size: 10.2px;" transform="translate(76.0020751953125,79)" y="0" x="0" id="text-entity-Role-9fd78adc-e65d-4563-bffc-5c821b302f3f-attr-3-name" class="er entityLabel">TEAMLEADER</text></g><g transform="translate(380.3948974609375,265 )" id="entity-User-ad0919c0-0727-4ff4-8b06-20c1acbe2cab"><rect height="178" width="192.1511688232422" y="0" x="0" class="er entityBox"/><text style="dominant-baseline: middle; text-anchor: middle; font-size: 12px;" transform="translate(96.0755844116211,12)" y="0" x="0" id="text-entity-User-ad0919c0-0727-4ff4-8b06-20c1acbe2cab" class="er entityLabel">User</text><rect height="22" width="54.095550537109375" y="24" x="0" class="er attributeBoxOdd"/><text style="dominant-baseline: middle; font-size: 10.2px;" transform="translate(5,35)" y="0" x="0" id="text-entity-User-ad0919c0-0727-4ff4-8b06-20c1acbe2cab-attr-1-type" class="er entityLabel">DateTime</text><rect height="22" width="68.1553955078125" y="24" x="54.095550537109375" class="er attributeBoxOdd"/><text style="dominant-baseline: middle; font-size: 10.2px;" transform="translate(59.095550537109375,35)" y="0" x="0" id="text-entity-User-ad0919c0-0727-4ff4-8b06-20c1acbe2cab-attr-1-name" class="er entityLabel">createdAt</text><rect height="22" width="22.68768310546875" y="24" x="122.25094604492188" class="er attributeBoxOdd"/><text style="dominant-baseline: middle; font-size: 10.2px;" transform="translate(127.25094604492188,35)" y="0" x="0" id="text-entity-User-ad0919c0-0727-4ff4-8b06-20c1acbe2cab-attr-1-key" class="er entityLabel"/><rect height="22" width="47.21253967285156" y="24" x="144.93862915039062" class="er attributeBoxOdd"/><text style="dominant-baseline: middle; font-size: 10.2px;" transform="translate(149.93862915039062,35)" y="0" x="0" id="text-entity-User-ad0919c0-0727-4ff4-8b06-20c1acbe2cab-attr-1-comment" class="er entityLabel"/><rect height="22" width="54.095550537109375" y="46" x="0" class="er attributeBoxEven"/><text style="dominant-baseline: middle; font-size: 10.2px;" transform="translate(5,57)" y="0" x="0" id="text-entity-User-ad0919c0-0727-4ff4-8b06-20c1acbe2cab-attr-2-type" class="er entityLabel">DateTime</text><rect height="22" width="68.1553955078125" y="46" x="54.095550537109375" class="er attributeBoxEven"/><text style="dominant-baseline: middle; font-size: 10.2px;" transform="translate(59.095550537109375,57)" y="0" x="0" id="text-entity-User-ad0919c0-0727-4ff4-8b06-20c1acbe2cab-attr-2-name" class="er entityLabel">updatedAt</text><rect height="22" width="22.68768310546875" y="46" x="122.25094604492188" class="er attributeBoxEven"/><text style="dominant-baseline: middle; font-size: 10.2px;" transform="translate(127.25094604492188,57)" y="0" x="0" id="text-entity-User-ad0919c0-0727-4ff4-8b06-20c1acbe2cab-attr-2-key" class="er entityLabel"/><rect height="22" width="47.21253967285156" y="46" x="144.93862915039062" class="er attributeBoxEven"/><text style="dominant-baseline: middle; font-size: 10.2px;" transform="translate(149.93862915039062,57)" y="0" x="0" id="text-entity-User-ad0919c0-0727-4ff4-8b06-20c1acbe2cab-attr-2-comment" class="er entityLabel"/><rect height="22" width="54.095550537109375" y="68" x="0" class="er attributeBoxOdd"/><text style="dominant-baseline: middle; font-size: 10.2px;" transform="translate(5,79)" y="0" x="0" id="text-entity-User-ad0919c0-0727-4ff4-8b06-20c1acbe2cab-attr-3-type" class="er entityLabel">String</text><rect height="22" width="68.1553955078125" y="68" x="54.095550537109375" class="er attributeBoxOdd"/><text style="dominant-baseline: middle; font-size: 10.2px;" transform="translate(59.095550537109375,79)" y="0" x="0" id="text-entity-User-ad0919c0-0727-4ff4-8b06-20c1acbe2cab-attr-3-name" class="er entityLabel">userId</text><rect height="22" width="22.68768310546875" y="68" x="122.25094604492188" class="er attributeBoxOdd"/><text style="dominant-baseline: middle; font-size: 10.2px;" transform="translate(127.25094604492188,79)" y="0" x="0" id="text-entity-User-ad0919c0-0727-4ff4-8b06-20c1acbe2cab-attr-3-key" class="er entityLabel">PK</text><rect height="22" width="47.21253967285156" y="68" x="144.93862915039062" class="er attributeBoxOdd"/><text style="dominant-baseline: middle; font-size: 10.2px;" transform="translate(149.93862915039062,79)" y="0" x="0" id="text-entity-User-ad0919c0-0727-4ff4-8b06-20c1acbe2cab-attr-3-comment" class="er entityLabel"/><rect height="22" width="54.095550537109375" y="90" x="0" class="er attributeBoxEven"/><text style="dominant-baseline: middle; font-size: 10.2px;" transform="translate(5,101)" y="0" x="0" id="text-entity-User-ad0919c0-0727-4ff4-8b06-20c1acbe2cab-attr-4-type" class="er entityLabel">String</text><rect height="22" width="68.1553955078125" y="90" x="54.095550537109375" class="er attributeBoxEven"/><text style="dominant-baseline: middle; font-size: 10.2px;" transform="translate(59.095550537109375,101)" y="0" x="0" id="text-entity-User-ad0919c0-0727-4ff4-8b06-20c1acbe2cab-attr-4-name" class="er entityLabel">name</text><rect height="22" width="22.68768310546875" y="90" x="122.25094604492188" class="er attributeBoxEven"/><text style="dominant-baseline: middle; font-size: 10.2px;" transform="translate(127.25094604492188,101)" y="0" x="0" id="text-entity-User-ad0919c0-0727-4ff4-8b06-20c1acbe2cab-attr-4-key" class="er entityLabel"/><rect height="22" width="47.21253967285156" y="90" x="144.93862915039062" class="er attributeBoxEven"/><text style="dominant-baseline: middle; font-size: 10.2px;" transform="translate(149.93862915039062,101)" y="0" x="0" id="text-entity-User-ad0919c0-0727-4ff4-8b06-20c1acbe2cab-attr-4-comment" class="er entityLabel"/><rect height="22" width="54.095550537109375" y="112" x="0" class="er attributeBoxOdd"/><text style="dominant-baseline: middle; font-size: 10.2px;" transform="translate(5,123)" y="0" x="0" id="text-entity-User-ad0919c0-0727-4ff4-8b06-20c1acbe2cab-attr-5-type" class="er entityLabel">String</text><rect height="22" width="68.1553955078125" y="112" x="54.095550537109375" class="er attributeBoxOdd"/><text style="dominant-baseline: middle; font-size: 10.2px;" transform="translate(59.095550537109375,123)" y="0" x="0" id="text-entity-User-ad0919c0-0727-4ff4-8b06-20c1acbe2cab-attr-5-name" class="er entityLabel">password</text><rect height="22" width="22.68768310546875" y="112" x="122.25094604492188" class="er attributeBoxOdd"/><text style="dominant-baseline: middle; font-size: 10.2px;" transform="translate(127.25094604492188,123)" y="0" x="0" id="text-entity-User-ad0919c0-0727-4ff4-8b06-20c1acbe2cab-attr-5-key" class="er entityLabel"/><rect height="22" width="47.21253967285156" y="112" x="144.93862915039062" class="er attributeBoxOdd"/><text style="dominant-baseline: middle; font-size: 10.2px;" transform="translate(149.93862915039062,123)" y="0" x="0" id="text-entity-User-ad0919c0-0727-4ff4-8b06-20c1acbe2cab-attr-5-comment" class="er entityLabel"/><rect height="22" width="54.095550537109375" y="134" x="0" class="er attributeBoxEven"/><text style="dominant-baseline: middle; font-size: 10.2px;" transform="translate(5,145)" y="0" x="0" id="text-entity-User-ad0919c0-0727-4ff4-8b06-20c1acbe2cab-attr-6-type" class="er entityLabel">Role</text><rect height="22" width="68.1553955078125" y="134" x="54.095550537109375" class="er attributeBoxEven"/><text style="dominant-baseline: middle; font-size: 10.2px;" transform="translate(59.095550537109375,145)" y="0" x="0" id="text-entity-User-ad0919c0-0727-4ff4-8b06-20c1acbe2cab-attr-6-name" class="er entityLabel">role</text><rect height="22" width="22.68768310546875" y="134" x="122.25094604492188" class="er attributeBoxEven"/><text style="dominant-baseline: middle; font-size: 10.2px;" transform="translate(127.25094604492188,145)" y="0" x="0" id="text-entity-User-ad0919c0-0727-4ff4-8b06-20c1acbe2cab-attr-6-key" class="er entityLabel"/><rect height="22" width="47.21253967285156" y="134" x="144.93862915039062" class="er attributeBoxEven"/><text style="dominant-baseline: middle; font-size: 10.2px;" transform="translate(149.93862915039062,145)" y="0" x="0" id="text-entity-User-ad0919c0-0727-4ff4-8b06-20c1acbe2cab-attr-6-comment" class="er entityLabel"/><rect height="22" width="54.095550537109375" y="156" x="0" class="er attributeBoxOdd"/><text style="dominant-baseline: middle; font-size: 10.2px;" transform="translate(5,167)" y="0" x="0" id="text-entity-User-ad0919c0-0727-4ff4-8b06-20c1acbe2cab-attr-7-type" class="er entityLabel">String</text><rect height="22" width="68.1553955078125" y="156" x="54.095550537109375" class="er attributeBoxOdd"/><text style="dominant-baseline: middle; font-size: 10.2px;" transform="translate(59.095550537109375,167)" y="0" x="0" id="text-entity-User-ad0919c0-0727-4ff4-8b06-20c1acbe2cab-attr-7-name" class="er entityLabel">profileImage</text><rect height="22" width="22.68768310546875" y="156" x="122.25094604492188" class="er attributeBoxOdd"/><text style="dominant-baseline: middle; font-size: 10.2px;" transform="translate(127.25094604492188,167)" y="0" x="0" id="text-entity-User-ad0919c0-0727-4ff4-8b06-20c1acbe2cab-attr-7-key" class="er entityLabel"/><rect height="22" width="47.21253967285156" y="156" x="144.93862915039062" class="er attributeBoxOdd"/><text style="dominant-baseline: middle; font-size: 10.2px;" transform="translate(149.93862915039062,167)" y="0" x="0" id="text-entity-User-ad0919c0-0727-4ff4-8b06-20c1acbe2cab-attr-7-comment" class="er entityLabel">nullable</text></g><g transform="translate(94.99227905273438,254 )" id="entity-Chatroom-d36f0184-22f9-418c-8d41-4e13c2b8e1cf"><rect height="200" width="185.40261840820312" y="0" x="0" class="er entityBox"/><text style="dominant-baseline: middle; text-anchor: middle; font-size: 12px;" transform="translate(92.70130920410156,12)" y="0" x="0" id="text-entity-Chatroom-d36f0184-22f9-418c-8d41-4e13c2b8e1cf" class="er entityLabel">Chatroom</text><rect height="22" width="54.095550537109375" y="24" x="0" class="er attributeBoxOdd"/><text style="dominant-baseline: middle; font-size: 10.2px;" transform="translate(5,35)" y="0" x="0" id="text-entity-Chatroom-d36f0184-22f9-418c-8d41-4e13c2b8e1cf-attr-1-type" class="er entityLabel">Int</text><rect height="22" width="61.40684509277344" y="24" x="54.095550537109375" class="er attributeBoxOdd"/><text style="dominant-baseline: middle; font-size: 10.2px;" transform="translate(59.095550537109375,35)" y="0" x="0" id="text-entity-Chatroom-d36f0184-22f9-418c-8d41-4e13c2b8e1cf-attr-1-name" class="er entityLabel">id</text><rect height="22" width="22.68768310546875" y="24" x="115.50239562988281" class="er attributeBoxOdd"/><text style="dominant-baseline: middle; font-size: 10.2px;" transform="translate(120.50239562988281,35)" y="0" x="0" id="text-entity-Chatroom-d36f0184-22f9-418c-8d41-4e13c2b8e1cf-attr-1-key" class="er entityLabel">PK</text><rect height="22" width="47.21253967285156" y="24" x="138.19007873535156" class="er attributeBoxOdd"/><text style="dominant-baseline: middle; font-size: 10.2px;" transform="translate(143.19007873535156,35)" y="0" x="0" id="text-entity-Chatroom-d36f0184-22f9-418c-8d41-4e13c2b8e1cf-attr-1-comment" class="er entityLabel"/><rect height="22" width="54.095550537109375" y="46" x="0" class="er attributeBoxEven"/><text style="dominant-baseline: middle; font-size: 10.2px;" transform="translate(5,57)" y="0" x="0" id="text-entity-Chatroom-d36f0184-22f9-418c-8d41-4e13c2b8e1cf-attr-2-type" class="er entityLabel">DateTime</text><rect height="22" width="61.40684509277344" y="46" x="54.095550537109375" class="er attributeBoxEven"/><text style="dominant-baseline: middle; font-size: 10.2px;" transform="translate(59.095550537109375,57)" y="0" x="0" id="text-entity-Chatroom-d36f0184-22f9-418c-8d41-4e13c2b8e1cf-attr-2-name" class="er entityLabel">createdAt</text><rect height="22" width="22.68768310546875" y="46" x="115.50239562988281" class="er attributeBoxEven"/><text style="dominant-baseline: middle; font-size: 10.2px;" transform="translate(120.50239562988281,57)" y="0" x="0" id="text-entity-Chatroom-d36f0184-22f9-418c-8d41-4e13c2b8e1cf-attr-2-key" class="er entityLabel"/><rect height="22" width="47.21253967285156" y="46" x="138.19007873535156" class="er attributeBoxEven"/><text style="dominant-baseline: middle; font-size: 10.2px;" transform="translate(143.19007873535156,57)" y="0" x="0" id="text-entity-Chatroom-d36f0184-22f9-418c-8d41-4e13c2b8e1cf-attr-2-comment" class="er entityLabel"/><rect height="22" width="54.095550537109375" y="68" x="0" class="er attributeBoxOdd"/><text style="dominant-baseline: middle; font-size: 10.2px;" transform="translate(5,79)" y="0" x="0" id="text-entity-Chatroom-d36f0184-22f9-418c-8d41-4e13c2b8e1cf-attr-3-type" class="er entityLabel">DateTime</text><rect height="22" width="61.40684509277344" y="68" x="54.095550537109375" class="er attributeBoxOdd"/><text style="dominant-baseline: middle; font-size: 10.2px;" transform="translate(59.095550537109375,79)" y="0" x="0" id="text-entity-Chatroom-d36f0184-22f9-418c-8d41-4e13c2b8e1cf-attr-3-name" class="er entityLabel">updatedAt</text><rect height="22" width="22.68768310546875" y="68" x="115.50239562988281" class="er attributeBoxOdd"/><text style="dominant-baseline: middle; font-size: 10.2px;" transform="translate(120.50239562988281,79)" y="0" x="0" id="text-entity-Chatroom-d36f0184-22f9-418c-8d41-4e13c2b8e1cf-attr-3-key" class="er entityLabel"/><rect height="22" width="47.21253967285156" y="68" x="138.19007873535156" class="er attributeBoxOdd"/><text style="dominant-baseline: middle; font-size: 10.2px;" transform="translate(143.19007873535156,79)" y="0" x="0" id="text-entity-Chatroom-d36f0184-22f9-418c-8d41-4e13c2b8e1cf-attr-3-comment" class="er entityLabel"/><rect height="22" width="54.095550537109375" y="90" x="0" class="er attributeBoxEven"/><text style="dominant-baseline: middle; font-size: 10.2px;" transform="translate(5,101)" y="0" x="0" id="text-entity-Chatroom-d36f0184-22f9-418c-8d41-4e13c2b8e1cf-attr-4-type" class="er entityLabel">String</text><rect height="22" width="61.40684509277344" y="90" x="54.095550537109375" class="er attributeBoxEven"/><text style="dominant-baseline: middle; font-size: 10.2px;" transform="translate(59.095550537109375,101)" y="0" x="0" id="text-entity-Chatroom-d36f0184-22f9-418c-8d41-4e13c2b8e1cf-attr-4-name" class="er entityLabel">name</text><rect height="22" width="22.68768310546875" y="90" x="115.50239562988281" class="er attributeBoxEven"/><text style="dominant-baseline: middle; font-size: 10.2px;" transform="translate(120.50239562988281,101)" y="0" x="0" id="text-entity-Chatroom-d36f0184-22f9-418c-8d41-4e13c2b8e1cf-attr-4-key" class="er entityLabel"/><rect height="22" width="47.21253967285156" y="90" x="138.19007873535156" class="er attributeBoxEven"/><text style="dominant-baseline: middle; font-size: 10.2px;" transform="translate(143.19007873535156,101)" y="0" x="0" id="text-entity-Chatroom-d36f0184-22f9-418c-8d41-4e13c2b8e1cf-attr-4-comment" class="er entityLabel"/><rect height="22" width="54.095550537109375" y="112" x="0" class="er attributeBoxOdd"/><text style="dominant-baseline: middle; font-size: 10.2px;" transform="translate(5,123)" y="0" x="0" id="text-entity-Chatroom-d36f0184-22f9-418c-8d41-4e13c2b8e1cf-attr-5-type" class="er entityLabel">String</text><rect height="22" width="61.40684509277344" y="112" x="54.095550537109375" class="er attributeBoxOdd"/><text style="dominant-baseline: middle; font-size: 10.2px;" transform="translate(59.095550537109375,123)" y="0" x="0" id="text-entity-Chatroom-d36f0184-22f9-418c-8d41-4e13c2b8e1cf-attr-5-name" class="er entityLabel">chatImage</text><rect height="22" width="22.68768310546875" y="112" x="115.50239562988281" class="er attributeBoxOdd"/><text style="dominant-baseline: middle; font-size: 10.2px;" transform="translate(120.50239562988281,123)" y="0" x="0" id="text-entity-Chatroom-d36f0184-22f9-418c-8d41-4e13c2b8e1cf-attr-5-key" class="er entityLabel"/><rect height="22" width="47.21253967285156" y="112" x="138.19007873535156" class="er attributeBoxOdd"/><text style="dominant-baseline: middle; font-size: 10.2px;" transform="translate(143.19007873535156,123)" y="0" x="0" id="text-entity-Chatroom-d36f0184-22f9-418c-8d41-4e13c2b8e1cf-attr-5-comment" class="er entityLabel">nullable</text><rect height="22" width="54.095550537109375" y="134" x="0" class="er attributeBoxEven"/><text style="dominant-baseline: middle; font-size: 10.2px;" transform="translate(5,145)" y="0" x="0" id="text-entity-Chatroom-d36f0184-22f9-418c-8d41-4e13c2b8e1cf-attr-6-type" class="er entityLabel">String</text><rect height="22" width="61.40684509277344" y="134" x="54.095550537109375" class="er attributeBoxEven"/><text style="dominant-baseline: middle; font-size: 10.2px;" transform="translate(59.095550537109375,145)" y="0" x="0" id="text-entity-Chatroom-d36f0184-22f9-418c-8d41-4e13c2b8e1cf-attr-6-name" class="er entityLabel">description</text><rect height="22" width="22.68768310546875" y="134" x="115.50239562988281" class="er attributeBoxEven"/><text style="dominant-baseline: middle; font-size: 10.2px;" transform="translate(120.50239562988281,145)" y="0" x="0" id="text-entity-Chatroom-d36f0184-22f9-418c-8d41-4e13c2b8e1cf-attr-6-key" class="er entityLabel"/><rect height="22" width="47.21253967285156" y="134" x="138.19007873535156" class="er attributeBoxEven"/><text style="dominant-baseline: middle; font-size: 10.2px;" transform="translate(143.19007873535156,145)" y="0" x="0" id="text-entity-Chatroom-d36f0184-22f9-418c-8d41-4e13c2b8e1cf-attr-6-comment" class="er entityLabel"/><rect height="22" width="54.095550537109375" y="156" x="0" class="er attributeBoxOdd"/><text style="dominant-baseline: middle; font-size: 10.2px;" transform="translate(5,167)" y="0" x="0" id="text-entity-Chatroom-d36f0184-22f9-418c-8d41-4e13c2b8e1cf-attr-7-type" class="er entityLabel">Boolean</text><rect height="22" width="61.40684509277344" y="156" x="54.095550537109375" class="er attributeBoxOdd"/><text style="dominant-baseline: middle; font-size: 10.2px;" transform="translate(59.095550537109375,167)" y="0" x="0" id="text-entity-Chatroom-d36f0184-22f9-418c-8d41-4e13c2b8e1cf-attr-7-name" class="er entityLabel">private</text><rect height="22" width="22.68768310546875" y="156" x="115.50239562988281" class="er attributeBoxOdd"/><text style="dominant-baseline: middle; font-size: 10.2px;" transform="translate(120.50239562988281,167)" y="0" x="0" id="text-entity-Chatroom-d36f0184-22f9-418c-8d41-4e13c2b8e1cf-attr-7-key" class="er entityLabel"/><rect height="22" width="47.21253967285156" y="156" x="138.19007873535156" class="er attributeBoxOdd"/><text style="dominant-baseline: middle; font-size: 10.2px;" transform="translate(143.19007873535156,167)" y="0" x="0" id="text-entity-Chatroom-d36f0184-22f9-418c-8d41-4e13c2b8e1cf-attr-7-comment" class="er entityLabel"/><rect height="22" width="54.095550537109375" y="178" x="0" class="er attributeBoxEven"/><text style="dominant-baseline: middle; font-size: 10.2px;" transform="translate(5,189)" y="0" x="0" id="text-entity-Chatroom-d36f0184-22f9-418c-8d41-4e13c2b8e1cf-attr-8-type" class="er entityLabel">String</text><rect height="22" width="61.40684509277344" y="178" x="54.095550537109375" class="er attributeBoxEven"/><text style="dominant-baseline: middle; font-size: 10.2px;" transform="translate(59.095550537109375,189)" y="0" x="0" id="text-entity-Chatroom-d36f0184-22f9-418c-8d41-4e13c2b8e1cf-attr-8-name" class="er entityLabel">creatorId</text><rect height="22" width="22.68768310546875" y="178" x="115.50239562988281" class="er attributeBoxEven"/><text style="dominant-baseline: middle; font-size: 10.2px;" transform="translate(120.50239562988281,189)" y="0" x="0" id="text-entity-Chatroom-d36f0184-22f9-418c-8d41-4e13c2b8e1cf-attr-8-key" class="er entityLabel"/><rect height="22" width="47.21253967285156" y="178" x="138.19007873535156" class="er attributeBoxEven"/><text style="dominant-baseline: middle; font-size: 10.2px;" transform="translate(143.19007873535156,189)" y="0" x="0" id="text-entity-Chatroom-d36f0184-22f9-418c-8d41-4e13c2b8e1cf-attr-8-comment" class="er entityLabel"/></g><g transform="translate(20,20 )" id="entity-Message-e4e6618d-ce59-4586-a46a-fb29e909e279"><rect height="134" width="135.38717651367188" y="0" x="0" class="er entityBox"/><text style="dominant-baseline: middle; text-anchor: middle; font-size: 12px;" transform="translate(67.69358825683594,12)" y="0" x="0" id="text-entity-Message-e4e6618d-ce59-4586-a46a-fb29e909e279" class="er entityLabel">Message</text><rect height="22" width="54.095550537109375" y="24" x="0" class="er attributeBoxOdd"/><text style="dominant-baseline: middle; font-size: 10.2px;" transform="translate(5,35)" y="0" x="0" id="text-entity-Message-e4e6618d-ce59-4586-a46a-fb29e909e279-attr-1-type" class="er entityLabel">Int</text><rect height="22" width="58.60394287109375" y="24" x="54.095550537109375" class="er attributeBoxOdd"/><text style="dominant-baseline: middle; font-size: 10.2px;" transform="translate(59.095550537109375,35)" y="0" x="0" id="text-entity-Message-e4e6618d-ce59-4586-a46a-fb29e909e279-attr-1-name" class="er entityLabel">id</text><rect height="22" width="22.68768310546875" y="24" x="112.69949340820312" class="er attributeBoxOdd"/><text style="dominant-baseline: middle; font-size: 10.2px;" transform="translate(117.69949340820312,35)" y="0" x="0" id="text-entity-Message-e4e6618d-ce59-4586-a46a-fb29e909e279-attr-1-key" class="er entityLabel">PK</text><rect height="22" width="54.095550537109375" y="46" x="0" class="er attributeBoxEven"/><text style="dominant-baseline: middle; font-size: 10.2px;" transform="translate(5,57)" y="0" x="0" id="text-entity-Message-e4e6618d-ce59-4586-a46a-fb29e909e279-attr-2-type" class="er entityLabel">DateTime</text><rect height="22" width="58.60394287109375" y="46" x="54.095550537109375" class="er attributeBoxEven"/><text style="dominant-baseline: middle; font-size: 10.2px;" transform="translate(59.095550537109375,57)" y="0" x="0" id="text-entity-Message-e4e6618d-ce59-4586-a46a-fb29e909e279-attr-2-name" class="er entityLabel">sentAt</text><rect height="22" width="22.68768310546875" y="46" x="112.69949340820312" class="er attributeBoxEven"/><text style="dominant-baseline: middle; font-size: 10.2px;" transform="translate(117.69949340820312,57)" y="0" x="0" id="text-entity-Message-e4e6618d-ce59-4586-a46a-fb29e909e279-attr-2-key" class="er entityLabel"/><rect height="22" width="54.095550537109375" y="68" x="0" class="er attributeBoxOdd"/><text style="dominant-baseline: middle; font-size: 10.2px;" transform="translate(5,79)" y="0" x="0" id="text-entity-Message-e4e6618d-ce59-4586-a46a-fb29e909e279-attr-3-type" class="er entityLabel">DateTime</text><rect height="22" width="58.60394287109375" y="68" x="54.095550537109375" class="er attributeBoxOdd"/><text style="dominant-baseline: middle; font-size: 10.2px;" transform="translate(59.095550537109375,79)" y="0" x="0" id="text-entity-Message-e4e6618d-ce59-4586-a46a-fb29e909e279-attr-3-name" class="er entityLabel">updatedAt</text><rect height="22" width="22.68768310546875" y="68" x="112.69949340820312" class="er attributeBoxOdd"/><text style="dominant-baseline: middle; font-size: 10.2px;" transform="translate(117.69949340820312,79)" y="0" x="0" id="text-entity-Message-e4e6618d-ce59-4586-a46a-fb29e909e279-attr-3-key" class="er entityLabel"/><rect height="22" width="54.095550537109375" y="90" x="0" class="er attributeBoxEven"/><text style="dominant-baseline: middle; font-size: 10.2px;" transform="translate(5,101)" y="0" x="0" id="text-entity-Message-e4e6618d-ce59-4586-a46a-fb29e909e279-attr-4-type" class="er entityLabel">String</text><rect height="22" width="58.60394287109375" y="90" x="54.095550537109375" class="er attributeBoxEven"/><text style="dominant-baseline: middle; font-size: 10.2px;" transform="translate(59.095550537109375,101)" y="0" x="0" id="text-entity-Message-e4e6618d-ce59-4586-a46a-fb29e909e279-attr-4-name" class="er entityLabel">body</text><rect height="22" width="22.68768310546875" y="90" x="112.69949340820312" class="er attributeBoxEven"/><text style="dominant-baseline: middle; font-size: 10.2px;" transform="translate(117.69949340820312,101)" y="0" x="0" id="text-entity-Message-e4e6618d-ce59-4586-a46a-fb29e909e279-attr-4-key" class="er entityLabel"/><rect height="22" width="54.095550537109375" y="112" x="0" class="er attributeBoxOdd"/><text style="dominant-baseline: middle; font-size: 10.2px;" transform="translate(5,123)" y="0" x="0" id="text-entity-Message-e4e6618d-ce59-4586-a46a-fb29e909e279-attr-5-type" class="er entityLabel">String</text><rect height="22" width="58.60394287109375" y="112" x="54.095550537109375" class="er attributeBoxOdd"/><text style="dominant-baseline: middle; font-size: 10.2px;" transform="translate(59.095550537109375,123)" y="0" x="0" id="text-entity-Message-e4e6618d-ce59-4586-a46a-fb29e909e279-attr-5-name" class="er entityLabel">seenById</text><rect height="22" width="22.68768310546875" y="112" x="112.69949340820312" class="er attributeBoxOdd"/><text style="dominant-baseline: middle; font-size: 10.2px;" transform="translate(117.69949340820312,123)" y="0" x="0" id="text-entity-Message-e4e6618d-ce59-4586-a46a-fb29e909e279-attr-5-key" class="er entityLabel"/></g><g transform="translate(376.4704818725586,49.5 )" id="entity-ChatInvite-7128bbad-43ff-4308-943a-d9e902338402"><rect height="75" width="100" y="0" x="0" class="er entityBox"/><text style="dominant-baseline: middle; text-anchor: middle; font-size: 12px;" transform="translate(50,37.5)" y="0" x="0" id="text-entity-ChatInvite-7128bbad-43ff-4308-943a-d9e902338402" class="er entityLabel">ChatInvite</text></g><g transform="translate(715.1527709960938,49.5 )" id="entity-UserOnTeam-29decf5c-253b-48be-af66-551261204514"><rect height="75" width="100" y="0" x="0" class="er entityBox"/><text style="dominant-baseline: middle; text-anchor: middle; font-size: 12px;" transform="translate(50,37.5)" y="0" x="0" id="text-entity-UserOnTeam-29decf5c-253b-48be-af66-551261204514" class="er entityLabel">UserOnTeam</text></g><g transform="translate(672.5460662841797,287 )" id="entity-Team-9f4ea64b-386c-4ff0-a0a9-5aba4bc88771"><rect height="134" width="185.21340942382812" y="0" x="0" class="er entityBox"/><text style="dominant-baseline: middle; text-anchor: middle; font-size: 12px;" transform="translate(92.60670471191406,12)" y="0" x="0" id="text-entity-Team-9f4ea64b-386c-4ff0-a0a9-5aba4bc88771" class="er entityLabel">Team</text><rect height="22" width="54.095550537109375" y="24" x="0" class="er attributeBoxOdd"/><text style="dominant-baseline: middle; font-size: 10.2px;" transform="translate(5,35)" y="0" x="0" id="text-entity-Team-9f4ea64b-386c-4ff0-a0a9-5aba4bc88771-attr-1-type" class="er entityLabel">Int</text><rect height="22" width="61.21763610839844" y="24" x="54.095550537109375" class="er attributeBoxOdd"/><text style="dominant-baseline: middle; font-size: 10.2px;" transform="translate(59.095550537109375,35)" y="0" x="0" id="text-entity-Team-9f4ea64b-386c-4ff0-a0a9-5aba4bc88771-attr-1-name" class="er entityLabel">id</text><rect height="22" width="22.68768310546875" y="24" x="115.31318664550781" class="er attributeBoxOdd"/><text style="dominant-baseline: middle; font-size: 10.2px;" transform="translate(120.31318664550781,35)" y="0" x="0" id="text-entity-Team-9f4ea64b-386c-4ff0-a0a9-5aba4bc88771-attr-1-key" class="er entityLabel">PK</text><rect height="22" width="47.21253967285156" y="24" x="138.00086975097656" class="er attributeBoxOdd"/><text style="dominant-baseline: middle; font-size: 10.2px;" transform="translate(143.00086975097656,35)" y="0" x="0" id="text-entity-Team-9f4ea64b-386c-4ff0-a0a9-5aba4bc88771-attr-1-comment" class="er entityLabel"/><rect height="22" width="54.095550537109375" y="46" x="0" class="er attributeBoxEven"/><text style="dominant-baseline: middle; font-size: 10.2px;" transform="translate(5,57)" y="0" x="0" id="text-entity-Team-9f4ea64b-386c-4ff0-a0a9-5aba4bc88771-attr-2-type" class="er entityLabel">DateTime</text><rect height="22" width="61.21763610839844" y="46" x="54.095550537109375" class="er attributeBoxEven"/><text style="dominant-baseline: middle; font-size: 10.2px;" transform="translate(59.095550537109375,57)" y="0" x="0" id="text-entity-Team-9f4ea64b-386c-4ff0-a0a9-5aba4bc88771-attr-2-name" class="er entityLabel">createdAt</text><rect height="22" width="22.68768310546875" y="46" x="115.31318664550781" class="er attributeBoxEven"/><text style="dominant-baseline: middle; font-size: 10.2px;" transform="translate(120.31318664550781,57)" y="0" x="0" id="text-entity-Team-9f4ea64b-386c-4ff0-a0a9-5aba4bc88771-attr-2-key" class="er entityLabel"/><rect height="22" width="47.21253967285156" y="46" x="138.00086975097656" class="er attributeBoxEven"/><text style="dominant-baseline: middle; font-size: 10.2px;" transform="translate(143.00086975097656,57)" y="0" x="0" id="text-entity-Team-9f4ea64b-386c-4ff0-a0a9-5aba4bc88771-attr-2-comment" class="er entityLabel"/><rect height="22" width="54.095550537109375" y="68" x="0" class="er attributeBoxOdd"/><text style="dominant-baseline: middle; font-size: 10.2px;" transform="translate(5,79)" y="0" x="0" id="text-entity-Team-9f4ea64b-386c-4ff0-a0a9-5aba4bc88771-attr-3-type" class="er entityLabel">DateTime</text><rect height="22" width="61.21763610839844" y="68" x="54.095550537109375" class="er attributeBoxOdd"/><text style="dominant-baseline: middle; font-size: 10.2px;" transform="translate(59.095550537109375,79)" y="0" x="0" id="text-entity-Team-9f4ea64b-386c-4ff0-a0a9-5aba4bc88771-attr-3-name" class="er entityLabel">updatedAt</text><rect height="22" width="22.68768310546875" y="68" x="115.31318664550781" class="er attributeBoxOdd"/><text style="dominant-baseline: middle; font-size: 10.2px;" transform="translate(120.31318664550781,79)" y="0" x="0" id="text-entity-Team-9f4ea64b-386c-4ff0-a0a9-5aba4bc88771-attr-3-key" class="er entityLabel"/><rect height="22" width="47.21253967285156" y="68" x="138.00086975097656" class="er attributeBoxOdd"/><text style="dominant-baseline: middle; font-size: 10.2px;" transform="translate(143.00086975097656,79)" y="0" x="0" id="text-entity-Team-9f4ea64b-386c-4ff0-a0a9-5aba4bc88771-attr-3-comment" class="er entityLabel"/><rect height="22" width="54.095550537109375" y="90" x="0" class="er attributeBoxEven"/><text style="dominant-baseline: middle; font-size: 10.2px;" transform="translate(5,101)" y="0" x="0" id="text-entity-Team-9f4ea64b-386c-4ff0-a0a9-5aba4bc88771-attr-4-type" class="er entityLabel">String</text><rect height="22" width="61.21763610839844" y="90" x="54.095550537109375" class="er attributeBoxEven"/><text style="dominant-baseline: middle; font-size: 10.2px;" transform="translate(59.095550537109375,101)" y="0" x="0" id="text-entity-Team-9f4ea64b-386c-4ff0-a0a9-5aba4bc88771-attr-4-name" class="er entityLabel">name</text><rect height="22" width="22.68768310546875" y="90" x="115.31318664550781" class="er attributeBoxEven"/><text style="dominant-baseline: middle; font-size: 10.2px;" transform="translate(120.31318664550781,101)" y="0" x="0" id="text-entity-Team-9f4ea64b-386c-4ff0-a0a9-5aba4bc88771-attr-4-key" class="er entityLabel"/><rect height="22" width="47.21253967285156" y="90" x="138.00086975097656" class="er attributeBoxEven"/><text style="dominant-baseline: middle; font-size: 10.2px;" transform="translate(143.00086975097656,101)" y="0" x="0" id="text-entity-Team-9f4ea64b-386c-4ff0-a0a9-5aba4bc88771-attr-4-comment" class="er entityLabel"/><rect height="22" width="54.095550537109375" y="112" x="0" class="er attributeBoxOdd"/><text style="dominant-baseline: middle; font-size: 10.2px;" transform="translate(5,123)" y="0" x="0" id="text-entity-Team-9f4ea64b-386c-4ff0-a0a9-5aba4bc88771-attr-5-type" class="er entityLabel">String</text><rect height="22" width="61.21763610839844" y="112" x="54.095550537109375" class="er attributeBoxOdd"/><text style="dominant-baseline: middle; font-size: 10.2px;" transform="translate(59.095550537109375,123)" y="0" x="0" id="text-entity-Team-9f4ea64b-386c-4ff0-a0a9-5aba4bc88771-attr-5-name" class="er entityLabel">teamImage</text><rect height="22" width="22.68768310546875" y="112" x="115.31318664550781" class="er attributeBoxOdd"/><text style="dominant-baseline: middle; font-size: 10.2px;" transform="translate(120.31318664550781,123)" y="0" x="0" id="text-entity-Team-9f4ea64b-386c-4ff0-a0a9-5aba4bc88771-attr-5-key" class="er entityLabel"/><rect height="22" width="47.21253967285156" y="112" x="138.00086975097656" class="er attributeBoxOdd"/><text style="dominant-baseline: middle; font-size: 10.2px;" transform="translate(143.00086975097656,123)" y="0" x="0" id="text-entity-Team-9f4ea64b-386c-4ff0-a0a9-5aba4bc88771-attr-5-comment" class="er entityLabel">nullable</text></g><rect height="14" width="55.66796875" y="491.5" x="448.6365051269531" class="er relationshipLabelBox"/><text style="text-anchor: middle; dominant-baseline: middle; font-size: 12px;" y="498.5" x="476.4704895019531" id="rel1" class="er relationshipLabel">enum:role</text><rect height="14" width="37.189453125" y="250.40310668945312" x="179.8042755126953" class="er relationshipLabelBox"/><text style="text-anchor: middle; dominant-baseline: middle; font-size: 12px;" y="257.4031066894531" x="198.3990020751953" id="rel2" class="er relationshipLabel">sender</text><rect height="14" width="56.3359375" y="196.4799041748047" x="108.5435791015625" class="er relationshipLabelBox"/><text style="text-anchor: middle; dominant-baseline: middle; font-size: 12px;" y="203.4799041748047" x="136.7115478515625" id="rel3" class="er relationshipLabel">chatGroup</text><rect height="14" width="23.802734375" y="176.63243103027344" x="297.61785888671875" class="er relationshipLabelBox"/><text style="text-anchor: middle; dominant-baseline: middle; font-size: 12px;" y="183.63243103027344" x="309.51922607421875" id="rel4" class="er relationshipLabel">chat</text><rect height="14" width="23.958984375" y="185.66537475585938" x="456.6455078125" class="er relationshipLabelBox"/><text style="text-anchor: middle; dominant-baseline: middle; font-size: 12px;" y="192.66537475585938" x="468.625" id="rel5" class="er relationshipLabel">user</text><rect height="14" width="23.958984375" y="184.73110961914062" x="625.7918090820312" class="er relationshipLabelBox"/><text style="text-anchor: middle; dominant-baseline: middle; font-size: 12px;" y="191.73110961914062" x="637.7713012695312" id="rel6" class="er relationshipLabel">user</text><rect height="14" width="27.607421875" y="198.75" x="751.3490600585938" class="er relationshipLabelBox"/><text style="text-anchor: middle; dominant-baseline: middle; font-size: 12px;" y="205.75" x="765.1527709960938" id="rel7" class="er relationshipLabel">team</text></svg>